<svg width="106.11" height="122.88" xmlns="http://www.w3.org/2000/svg" data-name="Layer 1">

 <title>safe</title>
 <g>
  <title>Layer 1</title>
  <path id="svg_1" fill-rule="evenodd" fill="#333" d="m56.36,2.44a104.34,104.34 0 0 0 23.41,11.46a48.25,48.25 0 0 0 19.08,2.57l6.71,-0.61l0.33,6.74c1.23,24.79 -2.77,46.33 -11.16,63.33c-8.73,17.67 -22.15,30.44 -39.38,36.93l-4.48,0c-16.85,-6.15 -30.16,-18.57 -39,-36.47c-8.24,-16.81 -12.48,-38.51 -11.8,-64.39l0.17,-6.65l6.62,0.34a64.65,64.65 0 0 0 21.37,-2.19a60.41,60.41 0 0 0 20.69,-10.71l3.59,-2.79l3.85,2.44z" class="cls-1"/>
  <path id="svg_2" fill="#fff" fill-rule="evenodd" d="m52.89,7.91c17.38,11 33.07,16.22 46.55,15c2.35,47.59 -15.22,82.18 -46.37,93.9c-30.07,-10.98 -47.86,-44.36 -46.54,-94.63c15.81,0.82 31.33,-2.59 46.36,-14.27z" class="cls-2"/>
  <path id="svg_3" fill="#3263bc" fill-rule="evenodd" d="m52.92,16.31c14.47,9.17 27.54,13.51 38.76,12.49c2,39.63 -12.68,69.83 -38.61,79.6c-25.07,-9.14 -39.87,-38.34 -38.77,-80.2c13.17,0.69 26.1,-2.16 38.62,-11.89z" class="cls-3"/>
  <path id="svg_4" fill="#fff" fill-rule="evenodd" d="m37.13,49.73l2.87,0l0,-2a13.73,13.73 0 0 1 3.82,-9.54a12.7,12.7 0 0 1 18.52,0a13.77,13.77 0 0 1 3.82,9.54l0,2l2.84,0a2.14,2.14 0 0 1 2.14,2.13l0,26.91a2.14,2.14 0 0 1 -2.14,2.13l-31.87,0a2.13,2.13 0 0 1 -2.13,-2.13l0,-26.91a2.13,2.13 0 0 1 2.13,-2.13zm11.63,15.16a14.8,14.8 0 0 1 1.51,1.46a59.7,59.7 0 0 1 4.73,-6.54c4.68,-5.66 2.56,-4.57 9.06,-4.57l-0.91,1a64.73,64.73 0 0 0 -6,8a94.44,94.44 0 0 0 -6.15,10.14l-0.56,1.09l-0.52,-1.11a26.94,26.94 0 0 0 -3.46,-5.6a18.68,18.68 0 0 0 -4.4,-4c0.85,-2.78 4.88,-1.36 6.68,0.17l0.02,-0.04zm-4.76,-15.16l18.09,0l0,-2a9.73,9.73 0 0 0 -2.68,-6.73a8.69,8.69 0 0 0 -12.72,0a9.73,9.73 0 0 0 -2.69,6.74l0,2l0,-0.01z" class="cls-2"/>
 </g>
</svg>